<svg width="312" height="312" viewBox="0 0 312 312" fill="none" xmlns="http://www.w3.org/2000/svg">
<g id="Avater">
<g id="Ellipse 8" filter="url(#filter0_d_5_6483)">
<circle cx="155.659" cy="173.022" r="97.659" fill="white"/>
<circle cx="155.659" cy="173.022" r="96.659" stroke="#217BF4" stroke-opacity="0.6" stroke-width="2"/>
</g>
<mask id="mask0_5_6483" style="mask-type:alpha" maskUnits="userSpaceOnUse" x="58" y="49" width="220" height="246">
<path id="Ellipse 9" d="M58 173.45C58 119.514 101.723 49.0869 155.659 49.0869C285.668 45.4247 282.056 158.445 274.681 215.412H243.868C228.172 248.348 194.574 271.109 155.659 271.109C142.708 271.109 130.346 268.588 119.037 264.01C118.269 263.699 117.506 263.379 116.748 263.049C114.205 269.296 109.271 283.774 109.881 291.708C97.674 301.627 67.7536 282.4 70.2006 220.753C62.4267 206.739 58 190.611 58 173.45Z" fill="#C4C4C4"/>
</mask>
<g mask="url(#mask0_5_6483)">
<g id="Group 1000000774">
<path id="Vector" d="M267.623 193.068C261.649 194.879 254.24 197.438 248.742 196.102C244.335 195.032 244.666 193.64 244.168 190.72C245.565 188.35 251.469 183.796 262.899 181.472C277.185 178.568 278.128 189.882 267.623 193.068Z" fill="#FEBE9D"/>
<path id="Vector_2" d="M202.666 150.386C200.906 146.112 196.068 145.4 193.869 145.578C177.845 151.989 187.585 198.198 191.355 204.342C195.125 210.485 199.524 212.889 203.923 214.759C208.321 216.629 217.119 215.56 219.318 214.225C221.518 212.889 222.146 211.553 224.659 211.286C227.173 211.019 231.258 210.218 232.828 208.615C234.399 207.013 235.656 205.41 239.427 205.41C243.197 205.41 246.339 202.739 247.595 201.137C248.852 199.534 249.795 199.267 251.994 198.732C254.194 198.198 256.393 198.198 257.021 195.527C257.65 192.856 257.964 187.514 257.65 184.843C257.335 182.172 257.335 182.172 255.764 182.439C254.194 182.706 250.109 184.843 248.852 184.843C247.595 184.843 245.396 184.576 243.197 185.377C240.997 186.179 233.771 189.117 229.058 190.452C224.345 191.788 217.433 192.055 218.061 190.185C218.69 188.316 220.889 182.974 216.49 182.974C212.092 182.974 212.092 180.035 210.207 173.892C208.321 167.748 204.865 155.728 202.666 150.386Z" fill="#217BF4"/>
<path id="Vector_3" d="M249.168 196.597C250.529 196.508 253.629 195.957 255.137 194.461M250.424 187.783C251.367 186.982 253.818 185.379 256.08 185.379L250.424 187.783ZM252.624 189.119L255.137 188.05L252.624 189.119ZM249.482 192.858C250.948 192.68 254.257 192.003 255.766 190.721L249.482 192.858Z" stroke="#2068D9" stroke-width="1.07894"/>
<path id="Vector_4" d="M250.02 199.287C249.446 197.157 248.874 193.831 249.481 191.254C248.852 193.124 247.03 197.504 244.768 200.069C241.94 203.274 238.484 203.007 237.856 200.336C237.227 197.665 233.457 199.267 232.2 202.473C230.944 205.678 228.116 209.685 223.403 209.952C218.988 210.202 216.779 211.155 215.484 211.714C215.397 211.752 215.313 211.787 215.234 211.821C213.977 212.355 214.291 210.219 215.548 208.883C216.805 207.547 218.376 204.075 218.061 202.205C216.491 205.144 213.349 209.15 208.322 210.486C203.294 211.821 200.467 208.616 204.237 205.678C208.007 202.74 210.835 200.069 211.777 197.665C212.134 196.756 211.637 197.069 210.644 197.693C209.01 198.722 206.031 200.596 203.294 199.267C198.896 197.131 199.524 190.987 202.98 189.918C204.084 189.577 205.734 189.481 207.509 189.378C211.289 189.158 215.635 188.905 216.491 186.179C214.606 187.248 203.609 188.85 203.294 182.173C202.98 175.495 202.352 170.954 200.781 167.215C200.259 165.973 200.014 164.348 199.76 162.653C199.247 159.244 198.691 155.554 195.754 154.126C194.915 153.719 191.447 153.875 186.709 154.696C181.829 170.33 188.412 199.547 191.355 204.343C195.125 210.486 199.524 212.89 203.923 214.76C208.321 216.63 217.119 215.561 219.318 214.226C220.037 213.789 220.589 213.352 221.092 212.953C222.13 212.131 222.968 211.467 224.659 211.287C227.173 211.02 231.258 210.219 232.828 208.617C232.941 208.502 233.052 208.387 233.163 208.272C234.593 206.792 235.927 205.411 239.427 205.411C243.197 205.411 246.339 202.74 247.595 201.138C248.396 200.117 249.069 199.638 250.02 199.287Z" fill="#1771EA"/>
<path id="Vector_5" d="M194.4 208.417C195.962 206.682 198.614 204.244 201.095 203.54C204.866 202.472 202.98 201.938 199.838 203.006C196.697 204.074 196.068 203.273 195.754 199.801C195.44 196.328 196.697 190.185 198.582 185.911C200.467 181.637 202.98 168.282 197.639 163.207C195.182 160.873 190 161.138 185.149 163.535C183.936 179.448 188.906 200.35 191.355 204.341C192.332 205.932 193.35 207.272 194.4 208.417Z" fill="#2068D9"/>
<path id="Vector_6" d="M246.967 196.864C249.732 193.659 249.376 187.872 248.852 185.379C249.69 187.516 250.863 192.537 248.852 195.529C246.339 199.269 246.339 197.666 246.967 196.864Z" fill="#3881F2"/>
<path id="Vector_7" d="M171.249 274.057C180.548 270.424 192.928 272.187 197.955 273.522C198.583 273.682 199.212 273.522 200.468 269.783C201.725 266.044 200.783 256.695 200.468 255.894C200.154 255.093 200.154 254.558 200.468 253.223C202.039 244.408 196.07 223.307 193.556 211.555C191.042 199.802 194.499 188.851 197.955 180.838C201.411 172.824 198.583 162.407 197.64 151.723C196.698 141.039 186.016 140.238 171.563 137.299C157.11 134.361 138.572 134.361 130.403 151.99C122.234 169.619 129.775 192.59 130.403 205.678C131.031 218.766 124.748 229.985 120.663 241.47C116.579 252.956 117.522 261.503 116.264 268.982C115.259 274.965 117.312 277.529 118.464 278.064C118.569 279.399 118.778 282.978 118.778 286.611C118.778 291.152 120.663 293.555 125.376 293.288C130.089 293.021 137.63 290.35 144.228 286.077C150.826 281.803 159.623 278.597 171.249 274.057Z" fill="#217BF4"/>
<path id="Vector_8" d="M171.563 223.574C163.017 229.984 152.502 228.738 148.313 227.313C148.313 228.471 150.324 231.373 158.367 233.724C168.421 236.662 175.333 229.984 178.161 224.642C180.423 220.368 185.387 214.314 187.587 211.821C185.806 213.068 180.109 217.163 171.563 223.574Z" fill="#3881F2"/>
<path id="Vector_9" d="M197.955 273.522C192.928 272.186 180.548 270.423 171.248 274.056C169.972 274.554 168.73 275.037 167.521 275.506C157.718 279.313 150.102 282.272 144.228 286.076C137.63 290.349 130.089 293.021 125.376 293.288C120.663 293.555 118.778 291.151 118.778 286.61C118.778 282.978 118.569 279.398 118.464 278.063C117.312 277.528 115.259 274.964 116.264 268.981C116.668 266.583 116.844 264.075 117.034 261.396C117.434 255.719 117.888 249.273 120.663 241.469C121.608 238.812 122.671 236.169 123.739 233.514C127.285 224.693 130.886 215.737 130.403 205.677C130.237 202.208 129.585 198.045 128.868 193.47C126.881 180.787 124.4 164.946 130.403 151.989C130.506 151.767 130.611 151.547 130.717 151.331C143.068 141.49 155.317 137.3 165.585 136.313C167.628 136.566 169.632 136.906 171.563 137.299C173.109 137.613 174.613 137.903 176.067 138.183C181.694 139.269 186.564 140.208 190.252 141.857C190.884 142.465 191.361 143.088 191.671 143.708C196.07 152.523 186.958 162.673 179.732 167.748C172.505 172.822 174.076 174.959 182.245 172.822C189.486 170.928 188.334 171.552 179.446 176.368C178.307 176.986 177.04 177.672 175.647 178.431C163.394 185.109 177.218 182.437 187.272 180.3C197.326 178.163 195.441 183.238 193.242 185.375C192.321 186.27 191.289 186.79 190.379 187.249C189.115 187.887 188.083 188.407 187.901 189.649C187.586 191.786 185.387 194.189 182.559 195.258C182.336 195.342 182.109 195.427 181.878 195.512C179.196 196.508 176.127 197.648 174.39 200.6C172.505 203.805 167.792 204.339 162.137 204.072C156.481 203.804 148.941 205.941 155.853 211.55C162.765 217.16 172.505 213.153 177.532 211.016C165.907 223.303 149.255 214.221 146.113 209.948C142.971 205.674 141.4 204.339 137.315 205.407C133.231 206.475 131.974 211.549 135.745 212.618C137.415 213.091 139.148 212.883 140.559 212.713C142.333 212.5 143.599 212.347 143.599 213.686C143.599 215.721 138.647 219.287 134.268 222.44C133.473 223.012 132.698 223.57 131.974 224.103C127.261 227.576 132.603 230.514 136.059 231.582C139.515 232.651 138.572 233.986 132.917 239.329C125.062 247.076 140.143 254.287 153.968 246.007C165.028 239.382 174.704 238.795 178.161 239.329C174.181 240.309 164.525 243.817 157.738 250.013C152.018 255.236 144.441 256.695 137.703 257.991C134.449 258.618 131.391 259.206 128.832 260.163C120.977 263.101 125.062 268.978 131.66 269.245C135.179 269.387 141.381 266.034 148.499 262.185C154.727 258.817 161.656 255.07 168.106 252.952C181.931 248.411 191.357 251.883 196.384 253.754C188.215 253.22 165.279 259.897 153.339 266.575C147.565 269.804 143.26 271.035 139.501 272.109C135.488 273.256 132.097 274.225 128.204 277.259C120.663 283.135 130.717 287.142 137.944 286.074C141.172 285.596 145.717 282.987 150.907 280.007C157.334 276.317 164.75 272.059 171.877 270.581C181.41 268.605 193.471 270.743 199.453 272.343C198.818 273.59 198.386 273.631 197.955 273.522Z" fill="#1771EA"/>
<path id="Vector_10" d="M129.997 201.197C131.297 199.624 133.17 197.236 134.174 195.529C135.744 192.858 136.687 191.789 138.886 193.659C141.086 195.529 144.542 195.262 146.427 193.125C146.39 193.272 146.353 193.417 146.316 193.561C145.422 197.069 144.801 199.504 151.14 198.734C153.458 198.453 156.784 198.83 160.001 199.196C165.942 199.871 171.512 200.503 169.677 196.865C166.849 191.255 164.964 177.633 170.62 172.825C175.144 168.979 178.998 163.565 180.36 161.34C182.873 156.265 182.622 146.382 161.508 147.45C153.127 147.874 143.986 146.116 135.432 144.418C133.501 146.475 131.8 148.974 130.403 151.99C124.399 164.946 126.881 180.787 128.868 193.47C129.298 196.214 129.704 198.81 129.997 201.197Z" fill="#2068D9"/>
<path id="Vector_11" d="M185.701 263.638C192.237 263.852 193.661 259.81 193.556 257.762C193.556 256.159 195.441 256.159 194.499 263.104C193.556 270.049 182.245 266.309 172.505 267.111C162.765 267.912 148.941 274.056 145.485 275.925C162.451 263.371 177.532 263.371 185.701 263.638Z" fill="#3881F2"/>
<path id="Vector_12" d="M192.925 254.824C193.658 257.584 194.999 264.547 194.496 270.316M123.489 279.665C123.489 281.624 123.677 286.342 124.431 289.548L123.489 279.665ZM131.029 276.193C131.762 278.597 133.166 283.939 132.915 286.075L131.029 276.193ZM136.056 273.521C136.58 275.391 137.627 280.573 137.627 286.342L136.056 273.521ZM142.34 274.056V281V274.056ZM147.367 270.316C147.996 271.919 149.064 275.872 148.31 278.864L147.367 270.316ZM152.394 267.378C152.918 269.159 153.966 273.415 153.966 276.193L152.394 267.378ZM158.678 265.776V272.72V265.776ZM164.648 262.303C165.172 264.618 165.905 270.103 164.648 273.521V262.303ZM169.047 260.968C169.78 262.481 171.12 266.31 170.618 269.515L169.047 260.968ZM176.587 259.632C176.587 261.947 176.587 266.791 176.587 267.645V259.632ZM180.672 257.495C180.986 259.632 181.614 264.814 181.614 268.446L180.672 257.495ZM189.155 260.701C189.26 262.837 189.281 267.592 188.527 269.515L189.155 260.701Z" stroke="#2068D9" stroke-width="1.07894"/>
<path id="Vector_13" d="M126.633 274.859C147.16 265.51 190.54 247.721 198.583 254.559" stroke="#3881F2" stroke-width="1.07894"/>
<path id="Vector_14" d="M116.264 268.981C115.259 274.964 117.312 277.528 118.464 278.062C118.514 278.7 118.588 279.847 118.651 281.268C121.521 278.953 127.89 274.002 130.403 272.72C125.691 274.056 119.467 276.727 118.651 270.851C117.836 264.974 120.977 258.831 122.862 255.626C124.748 252.42 127.002 242.804 124.619 231.319C123.264 234.716 121.868 238.081 120.663 241.469C116.579 252.955 117.522 261.502 116.264 268.981Z" fill="#2068D9"/>
<path id="Vector_15" d="M93.3214 282.414C93.7508 276.186 94.8431 268.612 98.0457 263.947C100.612 260.208 101.796 261.012 104.702 261.585C106.42 263.732 109.384 270.904 107.494 282.414C105.132 296.801 92.5663 293.365 93.3214 282.414Z" fill="#FEBE9D"/>
<path id="Vector_16" d="M91.7565 273.523C92.2592 272.455 92.5944 270.941 92.6991 270.318C93.6416 263.373 92.6991 256.696 92.6991 245.21C92.6991 233.725 95.5272 221.705 98.0404 217.431C100.554 213.158 99.9255 209.418 101.183 207.282C102.439 205.144 106.209 202.741 104.953 195.529C103.696 188.317 108.095 187.515 108.409 178.434C108.723 169.352 110.608 157.867 116.578 149.853C122.548 141.84 144.541 136.498 146.741 151.723C148.94 166.948 140.771 177.098 137.315 183.776C133.859 190.453 129.46 204.877 128.831 208.617C128.203 212.356 125.375 223.04 125.375 227.581C125.375 232.122 124.119 240.402 122.233 247.614C120.348 254.826 116.264 263.64 115.007 264.441C113.75 265.243 113.122 265.777 113.122 267.113C113.122 268.448 112.493 272.989 112.179 274.591C111.865 276.194 111.551 276.728 110.608 276.194C109.666 275.66 108.095 275.66 105.267 275.66C102.439 275.66 97.7263 276.194 94.8986 275.927C92.0709 275.66 91.1284 274.858 91.7565 273.523Z" fill="#217BF4"/>
<path id="Vector_17" d="M104.011 266.312C97.9791 267.594 94.7952 266.49 93.9573 265.777C95.7377 266.312 99.9693 266.745 103.383 265.777C106.211 264.976 110.191 265.065 111.552 265.51C110.086 265.51 106.525 265.671 104.011 266.312Z" fill="#3881F2"/>
<path id="Vector_18" d="M108.41 266.844C108.096 267.912 107.719 270.316 108.725 271.385C109.73 272.453 108.934 273.433 108.41 273.788M97.4135 269.248C97.6229 270.049 97.7905 272.079 96.7854 273.788L97.4135 269.248ZM101.812 267.378L101.498 273.254L101.812 267.378Z" stroke="#2068D9" stroke-width="1.07894"/>
<path id="Vector_19" d="M108.427 275.712C109.245 274.274 110.176 272.044 109.981 270.05C109.667 266.845 105.268 265.777 102.755 266.311C105.896 264.975 112.809 262.038 114.694 255.36C116.579 248.682 115.95 244.676 109.981 244.142C108.724 244.142 107.467 243.874 111.866 240.669C116.265 237.464 123.177 231.321 116.579 227.581C109.981 223.842 105.582 220.903 104.64 216.897C107.781 219.034 111.552 221.438 113.123 221.705C114.482 221.936 114.43 221.767 113.782 219.644C113.68 219.312 113.564 218.932 113.437 218.5C112.494 215.294 110.295 207.281 110.295 204.877C111.238 207.815 112.809 212.356 116.893 214.226C120.978 216.095 122.234 211.02 121.606 207.548C120.978 204.076 120.663 201.405 124.748 198.466C128.832 195.528 135.43 185.111 130.717 180.57C126.005 176.03 117.522 167.749 117.836 161.339C118.08 156.355 117.565 154.762 115.256 151.789C115.673 151.124 116.113 150.478 116.579 149.853C120.845 144.127 133.295 139.765 140.856 143.298C141.563 143.724 142.263 144.157 142.955 144.594C144.891 146.144 146.27 148.462 146.741 151.723C148.572 164.399 143.217 173.557 139.377 180.122C138.605 181.442 137.894 182.658 137.315 183.776C133.86 190.453 129.461 204.877 128.832 208.617C128.638 209.774 128.232 211.597 127.766 213.698C126.724 218.382 125.376 224.446 125.376 227.581C125.376 232.122 124.119 240.402 122.234 247.614C120.349 254.826 116.264 263.64 115.008 264.441C113.751 265.243 113.123 265.777 113.123 267.113C113.123 268.448 112.494 272.989 112.18 274.591C111.866 276.194 111.552 276.728 110.609 276.194C110.099 275.905 109.405 275.772 108.427 275.712Z" fill="#1771EA"/>
<path id="Vector_20" d="M132.086 197.076C130.441 202.068 129.152 206.717 128.833 208.615C128.638 209.772 128.233 211.595 127.766 213.696C126.725 218.38 125.377 224.444 125.377 227.579C125.377 228.996 125.254 230.778 125.028 232.778C123.363 229.512 120.687 225.916 117.208 225.176C111.768 224.02 115.039 224.065 117.443 224.098C117.817 224.103 118.169 224.108 118.465 224.108C120.664 224.108 121.606 223.039 119.093 221.703C117.082 220.635 114.066 214.847 112.809 212.087C114.171 214.847 118.15 220.367 123.177 220.367C124.748 220.367 126.005 219.032 125.063 216.361C124.225 213.987 126.86 203.812 132.086 197.076Z" fill="#2068D9"/>
<path id="Vector_21" d="M148.676 133.081L150.861 120.657L166.427 123.898C166.063 125.519 166.099 130.542 166.973 136.592C167.847 142.641 170.432 145.864 171.889 146.854L148.676 133.081Z" fill="#FEBE9D"/>
<path id="Vector_22" d="M150.996 120.657L166.245 123.889C165.978 125.1 165.931 128.215 166.284 132.238C155.4 130.945 151.557 123.979 150.996 120.657Z" fill="#F2AD8A"/>
<path id="Vector_23" d="M142.331 174.912C141.759 171.189 144.334 170.391 146.623 169.327C148.02 168.678 149.737 167.83 150.342 166.18C154.359 167.753 158.375 168.149 164.648 167.34C164.934 171.105 165.563 179.805 165.792 184.485C166.078 190.336 168.081 199.643 161.5 196.452C154.92 193.261 152.917 192.995 149.77 193.793C146.623 194.59 144.334 193.793 144.048 188.74C143.762 183.687 142.903 175.975 142.331 174.912Z" fill="#8CB9FF"/>
<path id="Vector_24" d="M149.219 193.941C148.343 192.063 147.021 187.827 147.44 182.911C148.008 176.254 149.711 170.929 151.698 175.988C153.287 180.035 153.685 184.774 153.685 186.638C154.821 186.017 157.148 183.389 157.375 177.851C157.659 170.928 157.943 171.194 158.795 175.188C159.646 179.182 159.93 179.715 160.782 175.188C160.896 174.584 160.989 174.036 161.074 173.54C161.613 170.385 161.797 169.302 164.582 168.826C164.542 168.275 164.505 167.776 164.472 167.342C158.249 168.151 154.264 167.755 150.279 166.18C149.678 167.832 147.975 168.681 146.588 169.331C146.399 169.42 146.208 169.507 146.017 169.594C143.914 170.549 141.81 171.506 142.33 174.923C142.898 175.988 143.75 183.71 144.034 188.769C144.302 193.558 146.352 194.529 149.219 193.941Z" fill="#7EAEFA"/>
<path id="Vector_25" opacity="0.5" d="M142.889 177.346C143.966 175.085 145.851 171.972 147.736 171.444C150.582 170.648 151.151 170.117 152.004 169.321C152.858 168.524 153.711 169.055 153.996 170.117C154.28 171.179 155.134 170.117 155.987 169.056C156.841 167.994 158.548 168.79 158.833 169.587C158.934 169.871 159.29 169.681 159.9 169.356C160.847 168.851 162.408 168.019 164.582 168.131C164.561 167.847 164.541 167.582 164.523 167.338C158.285 168.145 154.291 167.75 150.297 166.18C149.695 167.827 147.988 168.673 146.598 169.321C146.409 169.41 146.217 169.497 146.026 169.583C143.917 170.536 141.809 171.489 142.331 174.896C142.499 175.21 142.693 176.108 142.889 177.346Z" fill="#70A2F2"/>
<path id="Vector_26" d="M163.066 127.957C152.698 126.674 144.405 117.77 141.648 113.672C136.133 115.009 135.03 114.205 134.754 110.463C134.478 106.72 141.648 104.849 143.027 98.7011C144.405 92.5529 149.093 81.059 162.329 75.7125C175.565 70.3664 186.87 87.7418 187.146 93.0883C187.422 98.4344 186.598 111.155 183.286 118.483C179.779 126.239 176.026 129.561 163.066 127.957Z" fill="#FEBE9D"/>
<path id="Vector_27" d="M142.176 113.14C136.693 114.473 135.405 114.508 135.13 110.778C129.921 111.844 118.68 115.728 115.39 122.734C111.278 131.492 115.39 132.891 118.132 134.223C120.874 135.555 119.503 139.285 115.939 139.818C112.375 140.351 112.1 137.686 111.826 136.088C110.181 143.281 115.939 143.281 118.406 142.215C116.761 146.478 117.309 149.675 121.148 150.741C124.986 151.806 121.148 155.803 121.148 159.532C121.148 163.262 125.26 165.393 125.535 168.058C125.809 170.722 129.099 172.054 132.389 173.119C135.679 174.185 134.308 175.517 132.937 177.915C131.566 180.312 133.759 182.177 134.034 185.374C134.308 188.571 136.501 188.838 139.243 189.371C136.501 184.842 138.146 183.243 139.791 181.911L139.843 181.87C141.465 180.556 142.801 179.474 142.259 175.784C141.71 172.054 144.178 171.255 146.371 170.189C148.565 169.123 151.581 167.525 149.387 162.729C147.194 157.934 154.048 154.737 155.693 149.941C157.338 145.146 153.5 139.285 151.854 137.153C150.21 135.022 148.565 131.825 148.016 130.493C147.468 129.161 148.016 129.161 148.29 129.427C149.661 130.76 149.935 129.694 150.21 128.362C150.429 127.296 150.667 124.166 150.758 122.734C146.577 119.765 143.676 115.375 142.176 113.14Z" fill="#2B2B39"/>
<path id="Vector_28" d="M165.953 131.56V128.113C172.769 128.595 176.661 127.343 179.442 124.633C185.099 131.293 180.091 137.154 179.269 138.487C177.624 136.355 174.334 135.556 173.511 135.556C172.689 135.556 171.866 135.822 171.044 134.49C170.221 133.158 169.947 131.56 168.302 130.494C166.986 129.641 166.188 130.849 165.953 131.56Z" fill="#2B2B39"/>
<path id="Vector_29" d="M134.75 125.381C136.409 126.595 139.258 130.014 137.384 133.97" stroke="#151523" stroke-width="0.8"/>
<path id="Vector_30" d="M142.175 128.387C145.717 131.115 151.975 137.89 148.669 143.17C144.536 149.769 143.651 152.145 143.651 157.161" stroke="#151523" stroke-width="0.8"/>
<path id="Vector_31" d="M135.21 161.026C137.101 160.232 140.26 156.95 137.764 150.175C135.267 143.399 138.426 139.411 140.317 138.265" stroke="#151523" stroke-width="0.8"/>
<path id="Vector_32" d="M125.696 140.842C123.418 143.04 120.229 147.912 125.696 149.811C132.53 152.186 134.17 154.56 131.983 159.309" stroke="#151523" stroke-width="0.8"/>
<path id="Vector_33" d="M124.531 154.154C125.232 154.974 126.213 157.324 124.531 160.167" stroke="#151523" stroke-width="0.8"/>
<path id="Vector_34" d="M120.975 125.012C120.032 125.902 118.775 128.324 121.289 130.888C124.431 134.093 124.117 135.963 122.546 138.1" stroke="#151523" stroke-width="0.8"/>
<path id="Vector_35" opacity="0.5" d="M127.306 113.971C126.073 115.625 124.856 117.483 123.909 119.351C123.012 121.121 122.351 122.912 122.157 124.554C121.963 126.195 122.232 127.714 123.235 128.907C123.474 129.191 123.707 129.466 123.933 129.732C124.836 130.793 125.629 131.726 126.2 132.612C126.91 133.713 127.248 134.7 127.031 135.716C126.812 136.736 126.023 137.839 124.339 139.147C123.143 140.077 121.509 141.099 119.34 142.258C119.225 142.528 119.119 142.794 119.024 143.055C121.536 141.743 123.412 140.591 124.763 139.542C126.496 138.196 127.396 136.995 127.649 135.811C127.903 134.624 127.494 133.507 126.751 132.355C126.159 131.437 125.336 130.469 124.431 129.405L124.431 129.404C124.207 129.141 123.978 128.872 123.746 128.597C122.864 127.547 122.597 126.174 122.782 124.607C122.968 123.04 123.603 121.305 124.486 119.562C125.56 117.445 126.99 115.334 128.391 113.527C128.029 113.67 127.667 113.818 127.306 113.971Z" fill="#1C1C2A"/>
<path id="Vector_36" opacity="0.5" d="M144.195 116.293C143.651 118.108 143.237 120.558 143.393 123.18C143.593 126.545 144.733 130.209 147.762 133.161C151.462 136.766 152.769 139.312 152.769 141.512C152.769 143.723 151.456 145.663 149.659 148.087C147.85 150.527 146.784 152.931 146.926 155.826C147.049 158.347 148.086 161.209 150.281 164.764C150.171 164.154 149.954 163.473 149.607 162.713C149.492 162.462 149.402 162.215 149.335 161.972C148.14 159.603 147.563 157.597 147.475 155.801C147.342 153.069 148.339 150.783 150.105 148.401C151.883 146.003 153.319 143.924 153.319 141.512C153.319 139.09 151.876 136.411 148.151 132.782C145.241 129.946 144.136 126.42 143.942 123.149C143.8 120.754 144.147 118.505 144.625 116.783C144.477 116.618 144.334 116.455 144.195 116.293Z" fill="#1C1C2A"/>
<path id="Vector_37" opacity="0.5" d="M138.721 189.37C138.178 188.741 137.662 188.006 137.259 187.188C136.366 185.372 136.038 183.158 137.204 180.781C138.58 177.978 138.076 175.483 137.612 173.187C137.55 172.881 137.489 172.577 137.433 172.278C137.194 170.995 137.048 169.772 137.303 168.548C137.557 167.332 138.212 166.09 139.621 164.782C141.116 163.395 141.677 161.958 141.789 160.468C141.883 159.219 141.66 157.928 141.435 156.624C141.396 156.396 141.356 156.167 141.318 155.938C141.061 154.386 140.871 152.793 141.209 151.113C141.546 149.44 142.412 147.66 144.304 145.751L144.311 145.743L144.319 145.734C145.631 144.171 145.832 142.06 145.124 139.922C144.435 137.843 142.884 135.717 140.613 133.974C141.264 132.731 141.707 129.763 139.394 125.871C137.889 123.337 136.953 121.104 136.853 118.959C136.78 117.399 137.149 115.866 138.092 114.28C137.879 114.27 137.681 114.248 137.499 114.214C136.595 115.808 136.228 117.376 136.304 118.983C136.409 121.259 137.399 123.581 138.918 126.139C141.259 130.079 140.621 132.923 140.054 133.853C138.33 134.98 135.95 137.136 134.317 140.001C132.744 142.76 131.858 146.189 132.941 149.986C132.85 149.948 132.756 149.91 132.66 149.871C128.985 148.413 127.732 146.732 127.606 145.142C127.477 143.514 128.51 141.846 129.745 140.375C130.99 138.893 132.601 136.646 133.269 134.178C133.942 131.692 133.658 128.972 131.096 126.614C129.193 124.863 128.701 122.609 128.871 120.472C129.041 118.33 129.877 116.333 130.593 115.156L130.12 114.882C129.37 116.116 128.501 118.192 128.322 120.431C128.144 122.675 128.66 125.11 130.718 127.003C133.105 129.2 133.37 131.704 132.738 134.042C132.099 136.397 130.549 138.571 129.319 140.036C128.079 141.513 126.911 143.328 127.058 145.183C127.207 147.076 128.703 148.879 132.453 150.368C132.741 150.482 133.01 150.6 133.26 150.72C134.614 151.371 135.407 152.096 135.821 152.842C136.232 153.584 136.287 154.377 136.102 155.203C135.727 156.879 134.386 158.626 133.164 160.164L133.01 160.357C132.775 160.653 132.547 160.939 132.337 161.212C131.08 162.845 130.492 164.243 130.529 165.667C130.556 166.727 130.928 167.772 131.578 168.909C130.687 168.248 129.794 167.517 129.06 166.684C128.015 165.497 127.314 164.12 127.408 162.46C127.452 161.677 127.673 160.821 128.13 159.88C128.753 158.6 129.195 157.452 129.373 156.445C129.552 155.436 129.469 154.544 129.011 153.8C128.554 153.057 127.748 152.507 126.577 152.126C125.574 151.801 124.287 151.593 122.677 151.498C122.799 151.667 122.881 151.852 122.931 152.051C124.376 152.152 125.519 152.348 126.403 152.635C127.5 152.991 128.172 153.479 128.54 154.076C128.907 154.672 128.996 155.42 128.831 156.354C128.666 157.29 128.248 158.386 127.633 159.651C127.155 160.636 126.912 161.552 126.86 162.406C126.571 163.572 126.142 165.439 125.784 167.285C125.743 167.498 125.702 167.712 125.663 167.924C125.671 167.973 125.677 168.023 125.682 168.072C125.723 168.474 125.832 168.845 125.999 169.19C126.094 168.611 126.205 168.001 126.324 167.385C126.545 166.247 126.793 165.101 127.018 164.118C127.297 165.222 127.897 166.186 128.643 167.033C129.742 168.282 131.174 169.299 132.395 170.164L132.785 169.799C131.694 168.204 131.111 166.916 131.078 165.654C131.046 164.398 131.558 163.117 132.777 161.534C132.865 161.419 132.956 161.302 133.051 161.182C133.017 162.111 133.044 163.322 133.205 164.611C133.422 166.357 133.887 168.268 134.793 169.813C135.604 171.196 135.284 172.831 134.484 174.368C134.483 174.37 134.482 174.371 134.481 174.373C134.641 174.691 134.627 175.04 134.501 175.429C134.67 175.163 134.829 174.89 134.974 174.61C135.806 173.012 136.219 171.164 135.27 169.547C134.416 168.09 133.964 166.258 133.751 164.546C133.544 162.883 133.564 161.354 133.648 160.429C134.84 158.928 136.239 157.109 136.64 155.317C136.845 154.395 136.792 153.466 136.304 152.587C135.832 151.735 134.967 150.961 133.608 150.291C132.368 146.481 133.215 143.037 134.797 140.261C136.346 137.544 138.593 135.481 140.245 134.374C142.46 136.066 143.948 138.117 144.6 140.087C145.266 142.099 145.057 144.003 143.9 145.387C141.948 147.359 141.028 149.227 140.669 151.01C140.312 152.789 140.517 154.461 140.775 156.024C140.815 156.26 140.855 156.494 140.895 156.725C141.12 158.032 141.33 159.249 141.241 160.428C141.138 161.793 140.634 163.103 139.242 164.395C137.763 165.767 137.043 167.104 136.764 168.441C136.487 169.771 136.65 171.078 136.892 172.374C136.95 172.682 137.011 172.99 137.073 173.299C137.536 175.601 138 177.917 136.708 180.55C135.455 183.103 135.814 185.489 136.763 187.419C137.081 188.065 137.464 188.661 137.877 189.196C138.149 189.257 138.431 189.314 138.721 189.37Z" fill="#1C1C2A"/>
<path id="Vector_38" d="M115.712 122.865C118.432 121.032 121.318 119.657 122.037 121.204C123.403 124.145 126.135 122.274 126.954 120.135C127.774 117.997 128.047 118.531 129.413 121.739C129.998 123.112 130.382 122.428 130.91 121.489C131.614 120.235 132.573 118.529 134.604 120.669C136.315 122.472 137.9 120.675 139.388 118.987C140.988 117.172 142.477 115.484 143.892 118.531C144.813 120.512 145.485 122.644 146.118 124.653C146.738 126.62 147.32 128.467 148.061 129.937C147.914 129.232 148.315 129.273 148.536 129.49C149.902 130.827 150.175 129.757 150.449 128.421C150.667 127.352 150.904 124.211 150.995 122.775C146.829 119.795 143.669 115.383 142.174 113.14C136.71 114.478 135.697 114.521 135.423 110.778C130.233 111.848 119.032 115.744 115.753 122.775C115.74 122.804 115.726 122.835 115.712 122.865Z" fill="#1C1C2A"/>
<path id="Vector_39" d="M147.982 130.525C147.433 129.189 147.982 129.189 148.256 129.456C148.877 130.061 149.273 130.173 149.545 129.991C151.402 131.772 155.663 135.763 157.858 137.473C160.053 139.183 165.723 141.036 168.284 141.749C167.357 139.878 165.59 135.228 165.934 131.594C166.168 130.881 166.967 129.67 168.284 130.525C169.93 131.594 170.204 133.197 171.027 134.533C171.851 135.87 172.673 135.603 173.497 135.603C174.32 135.603 177.612 136.404 179.258 138.542C179.715 138.898 181.014 139.718 182.55 140.145C184.471 140.68 186.94 143.352 186.117 146.024C185.294 148.697 182.002 151.369 180.356 154.309C178.709 157.249 176.24 166.068 167.735 167.671C166.253 167.95 164.888 168.175 163.62 168.347C157.605 169.159 153.754 168.762 149.902 167.18C150.272 166.122 150.208 164.735 149.353 162.861C147.158 158.05 154.017 154.844 155.663 150.033C157.31 145.223 153.469 139.344 151.822 137.206C150.176 135.068 148.53 131.861 147.982 130.525Z" fill="#8CB9FF"/>
<path id="Vector_40" d="M160.281 138.693C161.838 140.858 164.872 143.881 168.652 144.239C174.265 144.771 175.067 139.714 174.532 137.318C172.127 139.182 167.85 140.779 168.117 137.052C168.154 136.533 168.196 136.04 168.237 135.571C168.427 133.356 168.573 131.667 167.915 130.279C166.752 129.675 166.043 130.791 165.827 131.463C165.492 135.083 167.214 139.715 168.117 141.578C166.29 141.058 162.838 139.929 160.281 138.693Z" fill="#7EAEFA"/>
<path id="Vector_41" d="M157.901 167.721C157.104 167.516 156.322 167.272 155.539 166.992C155.963 165.934 155.89 164.547 154.91 162.674C153.371 159.729 155.721 157.386 158.207 154.907C159.779 153.339 161.406 151.716 162.137 149.853C163.476 146.438 161.645 142.484 159.795 139.714C162.145 141.023 165.781 142.942 168.42 143.977C172.505 145.579 171.563 148.518 166.221 145.847C164.022 144.778 164.022 148.251 168.42 150.12C172.819 151.99 180.988 151.723 183.816 145.312C186.644 138.902 190.1 139.703 187.901 145.847C185.701 151.99 181.302 158.667 177.846 160.805C176.172 161.839 173.761 162.123 171.291 162.412C168.662 162.721 165.966 163.037 164.022 164.277C161.13 166.12 160.318 167.621 160.255 168.212C159.761 168.133 159.276 168.041 158.798 167.936L157.901 167.721Z" fill="#7EAEFA"/>
<path id="Vector_42" opacity="0.5" d="M149.86 166.18C149.989 165.24 149.799 164.079 149.116 162.623C147.738 159.687 149.841 157.351 152.066 154.88C153.473 153.317 154.929 151.699 155.582 149.842C155.68 149.565 155.758 149.285 155.82 149.002L158.956 151.972C160.924 153.836 167.672 154.1 171.045 153.303C168.796 154.635 165.985 154.899 160.643 154.1C155.301 153.302 153.614 155.698 156.707 157.296C159.8 158.893 168.796 156.497 171.889 154.367C169.089 158.947 163.754 159.6 159.848 160.077C159.44 160.127 159.047 160.175 158.675 160.226C157.303 160.411 155.795 160.273 154.447 160.15C151.929 159.92 149.972 159.742 150.522 161.823C151.127 164.119 150.418 165.584 149.86 166.18Z" fill="#70A2F2"/>
<path id="Vector_43" d="M153.014 86.299C154.752 80.0979 160.077 79.9733 162.522 80.6862C163.88 80.9413 162.794 77.7462 167.412 77.2117C172.031 76.6771 175.019 79.6174 176.378 81.7557C177.736 83.894 178.822 86.0323 180.996 87.9031C182.082 91.1105 185.614 94.5855 186.429 95.3871C186.429 96.1892 186.744 101.502 186.744 103.907C191.362 100.433 189.418 97.2583 190.505 94.318C191.374 91.9659 190.686 90.4868 190.233 90.0414C190.324 88.7939 190.396 85.9252 189.961 84.4286C189.418 82.5574 187.516 82.2903 186.701 82.2903C187.244 80.9537 186.701 79.6174 185.886 79.0825C185.071 78.5479 184.256 77.2117 183.169 75.0734C182.082 72.9351 177.736 69.4603 175.834 68.6584C173.933 67.8566 173.933 66.5201 173.389 65.9856C166.326 59.838 160.077 62.5108 158.719 63.0454C157.36 63.58 156.546 63.0454 156.002 62.7782C145.407 56.3633 138.615 65.4511 136.713 68.1239C125.303 72.9351 121.228 79.0829 122.043 87.636C122.858 96.1892 120.413 99.3966 118.511 101.268C116.61 103.139 117.153 105.01 118.783 107.148C121.771 111.425 116.61 111.959 114.708 113.028C112.806 114.098 114.165 117.037 113.35 118.374C112.534 119.71 112.806 122.383 114.98 124.521C118.24 118.374 127.477 115.701 132.638 114.632C137.8 113.563 142.69 106.346 146.493 103.139C150.297 99.9312 150.84 94.0505 153.014 86.299Z" fill="#2B2B39"/>
<path id="Vector_44" opacity="0.5" d="M145.873 103.73C146.295 97.2472 147.558 89.5152 150.186 83.6635C151.803 80.064 153.92 77.2149 156.637 75.7827C159.298 74.38 162.588 74.3103 166.662 76.3316C166.61 76.7324 166.504 77.1122 166.361 77.4668C166.557 77.4135 166.766 77.3661 166.992 77.3259C167.108 76.9712 167.19 76.5955 167.225 76.201C167.346 74.858 166.928 73.3315 165.567 71.7335C164.105 70.0154 162.602 68.6978 161.264 67.525C160.853 67.1656 160.459 66.8196 160.086 66.4801C158.94 65.4375 157.995 64.4525 157.373 63.2994C157.108 63.2656 156.877 63.1926 156.672 63.1084C157.127 64.107 157.795 64.9676 158.595 65.7951C157.293 65.2798 155.673 64.8087 153.933 64.5806C150.476 64.1277 146.491 64.6295 143.598 67.7177C140.565 70.9564 138.026 75.5968 135.975 80.3813C133.922 85.1697 132.35 90.1226 131.257 94.0011C130.172 97.8478 128.344 101.753 125.915 104.791C124.107 107.052 121.979 108.818 119.588 109.735C119.554 109.971 119.479 110.186 119.37 110.383C122.052 109.472 124.398 107.555 126.345 105.12C128.828 102.015 130.683 98.0421 131.782 94.1432C132.872 90.2766 134.438 85.3473 136.478 80.5879C138.521 75.8237 141.031 71.25 144.001 68.0787C146.379 65.5395 149.555 64.8356 152.561 64.9907C149.643 66.0891 144.708 68.9552 141.114 74.4309C138.56 78.3218 137.06 83.9828 135.569 89.6103L135.451 90.0569C133.912 95.8608 132.353 101.579 129.658 105.405C127.513 108.448 124.516 110.311 121.631 111.404C119.191 112.327 116.841 112.695 115.177 112.761C114.964 112.85 114.769 112.94 114.6 113.035C114.499 113.092 114.406 113.154 114.322 113.221L114.32 113.302C116.038 113.347 118.871 113.021 121.828 111.902C124.787 110.782 127.885 108.862 130.107 105.708C132.869 101.789 134.448 95.9663 135.979 90.1911L136.083 89.799C137.586 84.1265 139.067 78.5372 141.573 74.7195C145.651 68.5066 151.485 65.7384 153.913 65.117C155.714 65.3585 157.379 65.867 158.673 66.4046C155.372 66.5941 149.986 68.3515 147.637 74.4815C146.835 76.5752 145.758 80.0031 144.491 84.0317L144.396 84.337C143.086 88.5022 141.578 93.289 139.96 97.9254C138.341 102.563 136.613 107.041 134.868 110.59C134.103 112.146 133.338 113.518 132.578 114.644C132.589 114.642 132.6 114.64 132.611 114.638C132.861 114.586 133.111 114.52 133.359 114.441C134.029 113.391 134.697 112.171 135.36 110.822C137.119 107.244 138.855 102.742 140.476 98.0982C142.098 93.453 143.609 88.6586 144.917 84.4943L145.007 84.2077C146.278 80.1636 147.352 76.7472 148.148 74.669C150.683 68.0545 156.904 66.7597 159.785 66.9356C160.149 67.2652 160.528 67.5973 160.918 67.9391C162.251 69.1079 163.713 70.3904 165.148 72.0754C166.287 73.4123 166.697 74.6598 166.699 75.7528C162.598 73.7758 159.184 73.8335 156.378 75.3126C153.505 76.8268 151.324 79.8033 149.687 83.4482C146.943 89.5546 145.677 97.646 145.293 104.281C145.489 104.09 145.682 103.906 145.873 103.73Z" fill="#1C1C2A"/>
<path id="Vector_45" opacity="0.5" d="M119.197 107.982C122.35 106.854 124.199 104.118 125.432 100.773C126.189 98.7164 126.721 96.4133 127.182 94.0812C127.366 93.1534 127.538 92.2235 127.708 91.3021C127.968 89.8982 128.223 88.5138 128.512 87.1835C129.86 80.9609 133.884 72.78 136.359 68.3115C136.083 68.4295 135.812 68.5483 135.544 68.6679C133.044 73.2619 129.283 81.0525 127.978 87.0729C127.689 88.4075 127.429 89.8094 127.168 91.2217C126.998 92.1419 126.827 93.0666 126.646 93.9797C126.187 96.3051 125.661 98.5755 124.918 100.592C123.701 103.895 121.92 106.472 118.926 107.509C119.029 107.672 119.119 107.83 119.197 107.982Z" fill="#1C1C2A"/>
<path id="Vector_46" d="M186.453 96.1047C186.849 96.1358 187.249 96.1561 187.646 96.1672C188.45 96.1899 189.256 96.1748 190.029 96.135C190.05 95.9543 190.075 95.7748 190.105 95.5964C189.314 95.6394 188.487 95.6569 187.662 95.6339C187.248 95.6223 186.837 95.6004 186.434 95.5674C186.437 95.7039 186.444 95.8858 186.453 96.1047Z" fill="#3A0A44"/>
<path id="Vector_47" d="M181.221 88.498C184.737 90.2191 188.18 90.612 190.456 90.5272C190.354 90.3362 190.246 90.1917 190.148 90.0953L190.151 90.0571L190.155 90.0018C187.785 90.0452 184.213 89.5576 180.653 87.5996C180.764 87.7019 180.877 87.8034 180.994 87.9037C181.061 88.1011 181.137 88.2994 181.221 88.498Z" fill="#3A0A44"/>
<path id="Vector_48" opacity="0.5" d="M162.601 69.1016C163.824 67.7245 167.624 65.6899 173.866 66.9276C173.965 67.1259 174.08 67.3376 174.235 67.5506C167.855 66.1379 164.104 68.2188 163.009 69.4531L162.601 69.1016Z" fill="#1C1C2A"/>
<path id="Vector_49" opacity="0.5" d="M184.681 82.368C185.367 82.4942 186.06 82.3998 186.752 81.9827C186.72 82.1061 186.679 82.2307 186.628 82.3549C186.765 82.3549 186.933 82.3624 187.121 82.3843C186.298 82.9081 185.444 83.051 184.582 82.8926C183.369 82.6697 182.188 81.8577 181.093 80.812C179.385 79.1813 177.8 76.8921 176.551 75.0886C176.199 74.5791 175.873 74.1086 175.578 73.7026C174.584 72.33 172.912 72.0558 171.136 72.3234C169.365 72.5902 167.571 73.3877 166.462 74.0433L166.184 73.5856C167.332 72.9065 169.193 72.0761 171.054 71.7957C172.91 71.5162 174.848 71.7759 176.019 73.3925C176.326 73.816 176.661 74.2997 177.021 74.8187C178.268 76.6187 179.806 78.8405 181.47 80.4283C182.54 81.4509 183.627 82.1738 184.681 82.368Z" fill="#1C1C2A"/>
<path id="Vector_50" d="M166.749 69.9526C168.381 68.697 172.464 67.2082 175.729 71.2978C178.995 75.3877 182.17 78.0247 183.35 78.832M170.559 75.3344C173.008 75.9621 178.287 78.0785 179.812 81.5223C181.717 85.8272 185.255 88.518 187.976 88.2489M185.799 90.9392C186.253 91.6569 187.541 92.8765 189.065 92.0156M165.388 64.572C166.567 64.3926 169.252 64.1953 170.559 64.841" stroke="#151523" stroke-width="0.8"/>
<path id="Vector_51" d="M160.28 69.8362C156.666 69.7472 148.679 72.4028 145.642 83.738M144.829 74.3812C142.751 78.2127 138.215 87.4808 136.697 93.8968C134.799 101.917 133.444 112.076 119.89 114.215M122.601 100.58C123.866 98.62 126.233 93.5227 125.583 88.8174C124.77 82.9359 125.854 77.3219 130.733 74.1137M152.962 63.1527C148.172 62.7962 138.053 64.4359 135.884 73.8462C133.715 83.2568 129.017 95.2335 126.938 100.045" stroke="#151523" stroke-width="0.8"/>
</g>
</g>
</g>
<defs>
<filter id="filter0_d_5_6483" x="0" y="0.363281" width="311.318" height="311.318" filterUnits="userSpaceOnUse" color-interpolation-filters="sRGB">
<feFlood flood-opacity="0" result="BackgroundImageFix"/>
<feColorMatrix in="SourceAlpha" type="matrix" values="0 0 0 0 0 0 0 0 0 0 0 0 0 0 0 0 0 0 127 0" result="hardAlpha"/>
<feOffset dy="-17"/>
<feGaussianBlur stdDeviation="29"/>
<feColorMatrix type="matrix" values="0 0 0 0 0.696557 0 0 0 0 0.836898 0 0 0 0 0.818186 0 0 0 0.05 0"/>
<feBlend mode="normal" in2="BackgroundImageFix" result="effect1_dropShadow_5_6483"/>
<feBlend mode="normal" in="SourceGraphic" in2="effect1_dropShadow_5_6483" result="shape"/>
</filter>
</defs>
</svg>
