<svg width="91" height="37" viewBox="0 0 91 37" fill="none" xmlns="http://www.w3.org/2000/svg">
<g id="Chat">
<path id="Vector" d="M83.8907 0.129883H7.03696C3.64204 0.129883 0.889771 2.88158 0.889771 6.2765V23.6989C0.889771 27.0933 3.64204 29.8456 7.03696 29.8456H69.6678L88.8394 36.0765L83.5671 29.8456H83.8907C87.2851 29.8456 90.0374 27.0933 90.0374 23.6989V6.2765C90.0374 2.88158 87.2851 0.129883 83.8907 0.129883Z" fill="#FFBE56"/>
<path id="Vector_2" fill-rule="evenodd" clip-rule="evenodd" d="M21.4993 17.3845C23.0874 17.3845 24.3751 16.0968 24.3751 14.5086C24.3751 12.9205 23.0874 11.6328 21.4993 11.6328C19.9111 11.6328 18.624 12.9205 18.624 14.5086C18.624 16.0968 19.9111 17.3845 21.4993 17.3845ZM37.795 17.3845C39.3832 17.3845 40.6708 16.0968 40.6708 14.5086C40.6708 12.9205 39.3832 11.6328 37.795 11.6328C36.2068 11.6328 34.9192 12.9205 34.9192 14.5086C34.9192 16.0968 36.2068 17.3845 37.795 17.3845ZM56.4873 14.5086C56.4873 16.0968 55.1996 17.3845 53.6115 17.3845C52.0233 17.3845 50.7356 16.0968 50.7356 14.5086C50.7356 12.9205 52.0233 11.6328 53.6115 11.6328C55.1996 11.6328 56.4873 12.9205 56.4873 14.5086ZM69.4279 17.3845C71.0161 17.3845 72.3037 16.0968 72.3037 14.5086C72.3037 12.9205 71.0161 11.6328 69.4279 11.6328C67.8397 11.6328 66.552 12.9205 66.552 14.5086C66.552 16.0968 67.8397 17.3845 69.4279 17.3845Z" fill="white"/>
</g>
</svg>
